<svg width="125" height="135" viewBox="0 0 125 135" fill="none" xmlns="http://www.w3.org/2000/svg">
<path d="M58.2705 29C58.002 30.6414 57.8594 32.3256 57.8594 34.043C57.8594 34.9312 57.8994 35.8104 57.9727 36.6797H28.6836V111.84L56.5811 92.151C57.87 91.198 59.6788 91.128 61.0615 92.101L89.0352 111.835V65.04C91.6869 65.0253 94.2595 64.679 96.7139 64.0381V119.237C96.7139 122.265 93.2412 124.315 90.4756 122.233L58.8584 99.929L27.0469 122.374C24.5 124.171 21.0079 122.315 21.0078 119.237H21V32.8389C21.0041 30.7218 22.7228 29 24.8438 29H58.2705Z" fill="black"/>
<path d="M86.7087 39.7149C85.1729 38.2489 83.3937 37.0543 81.371 36.1371C79.3909 35.2373 77.2891 34.6244 75.1506 34.2463C73.7674 34.0039 72.4054 33.8429 71.0628 33.7731C70.8001 33.7576 70.5374 33.7576 70.2785 33.7731C69.925 33.7925 69.8864 33.2806 70.2882 33.2515C70.6224 33.2301 70.9759 33.2049 71.3449 33.1797C72.3977 33.1041 73.495 32.9703 74.6367 32.7705C78.6665 32.0744 82.5901 30.5424 85.683 27.8371C88.2233 25.6167 90.0218 22.7099 90.9974 19.481C91.6001 17.4758 91.9382 15.4183 92.0078 13.3008C92.0155 13.039 92.0174 12.3699 92.0116 11.2859C92.0116 10.9194 92.5583 10.8903 92.5603 11.2859C92.568 12.3234 92.541 13.0525 92.6028 13.9737C92.7419 16.0875 93.1167 18.1547 93.7967 20.1485C94.7143 22.8421 96.2385 25.3224 98.292 27.2848C99.8278 28.7528 101.607 29.9455 103.63 30.8646C105.608 31.7645 107.71 32.3753 109.85 32.7554C111.233 32.9978 112.595 33.1568 113.938 33.2286C114.201 33.2441 114.463 33.2421 114.722 33.2286C115.074 33.2072 115.114 33.7231 114.713 33.7483C114.374 33.7716 114.025 33.7968 113.656 33.8239C112.603 33.8976 111.506 34.0334 110.364 34.2292C106.334 34.9273 102.411 36.4613 99.3177 39.1646C96.7774 41.3831 94.9789 44.2918 94.0033 47.5227C93.4006 49.524 93.0625 51.5835 92.993 53.7009C92.9852 53.9608 92.9833 54.6318 92.9891 55.7158C92.9891 56.0804 92.4424 56.1095 92.4404 55.7139C92.4327 54.6783 92.4598 53.9492 92.3979 53.0261C92.2588 50.9123 91.8802 48.8489 91.204 46.8553C90.2864 44.1597 88.7622 41.6774 86.7087 39.7149Z" fill="black"/>
</svg>
