<svg width="125" height="125" viewBox="0 0 125 125" fill="none" xmlns="http://www.w3.org/2000/svg">
<path d="M58.2705 24C58.002 25.6414 57.8594 27.3256 57.8594 29.043C57.8594 29.9312 57.8994 30.8104 57.9727 31.6797H28.6836V106.84L56.5811 87.151C57.87 86.198 59.6788 86.128 61.0615 87.101L89.0352 106.835V60.04C91.6869 60.0253 94.2595 59.679 96.7139 59.0381V114.237C96.7139 117.265 93.2412 119.315 90.4756 117.233L58.8584 94.929L27.0469 117.374C24.5 119.171 21.0079 117.315 21.0078 114.237H21V27.8389C21.0041 25.7218 22.7228 24 24.8438 24H58.2705Z" fill="black"/>
<path d="M86.7087 34.7149C85.1729 33.2489 83.3937 32.0543 81.371 31.1371C79.3909 30.2373 77.2891 29.6244 75.1506 29.2463C73.7674 29.0039 72.4054 28.8429 71.0628 28.7731C70.8001 28.7576 70.5374 28.7576 70.2785 28.7731C69.925 28.7925 69.8864 28.2806 70.2882 28.2515C70.6224 28.2301 70.9759 28.2049 71.3449 28.1797C72.3977 28.1041 73.495 27.9703 74.6367 27.7705C78.6665 27.0744 82.5901 25.5424 85.683 22.8371C88.2233 20.6167 90.0218 17.7099 90.9974 14.481C91.6001 12.4758 91.9382 10.4183 92.0078 8.30079C92.0155 8.03899 92.0174 7.36989 92.0116 6.28589C92.0116 5.91939 92.5583 5.89029 92.5603 6.28589C92.568 7.32339 92.541 8.05249 92.6028 8.97369C92.7419 11.0875 93.1167 13.1547 93.7967 15.1485C94.7143 17.8421 96.2385 20.3224 98.292 22.2848C99.8278 23.7528 101.607 24.9455 103.63 25.8646C105.608 26.7645 107.71 27.3753 109.85 27.7554C111.233 27.9978 112.595 28.1568 113.938 28.2286C114.201 28.2441 114.463 28.2421 114.722 28.2286C115.074 28.2072 115.114 28.7231 114.713 28.7483C114.374 28.7716 114.025 28.7968 113.656 28.8239C112.603 28.8976 111.506 29.0334 110.364 29.2292C106.334 29.9273 102.411 31.4613 99.3177 34.1646C96.7774 36.3831 94.9789 39.2918 94.0033 42.5227C93.4006 44.524 93.0625 46.5835 92.993 48.7009C92.9852 48.9608 92.9833 49.6318 92.9891 50.7158C92.9891 51.0804 92.4424 51.1095 92.4404 50.7139C92.4327 49.6783 92.4598 48.9492 92.3979 48.0261C92.2588 45.9123 91.8802 43.8489 91.204 41.8553C90.2864 39.1597 88.7622 36.6774 86.7087 34.7149Z" fill="black"/>
</svg>
