<svg width="100" height="100" viewBox="0 0 100 100" fill="none" xmlns="http://www.w3.org/2000/svg">
<path d="M49.2204 20C49.1823 20.5697 49.1605 21.1443 49.1605 21.7236C49.1605 22.227 49.1768 22.7269 49.2056 23.2232H27.2481V81.2206L50 58.6645L72.7519 81.2206L72.7511 47.3695C73.5523 47.443 74.3637 47.4831 75.1843 47.4831C75.4572 47.4831 75.7291 47.4775 76 47.4693V89L50 63.2242L24 89V20H49.2204Z" fill="black"/>
<path d="M68.367 27.9719C67.1383 26.7991 65.715 25.8434 64.0968 25.1097C62.5127 24.3898 60.8313 23.8995 59.1205 23.597C58.0139 23.4031 56.9243 23.2743 55.8502 23.2185C55.6401 23.2061 55.4299 23.2061 55.2228 23.2185C54.94 23.234 54.9091 22.8245 55.2306 22.8012C55.4979 22.7841 55.7807 22.7639 56.0759 22.7438C56.9182 22.6833 57.796 22.5762 58.7094 22.4164C61.9332 21.8595 65.0721 20.6339 67.5464 18.4697C69.5787 16.6934 71.0175 14.3679 71.7979 11.7848C72.2801 10.1806 72.5506 8.53463 72.6063 6.84063C72.6124 6.63119 72.6139 6.09591 72.6093 5.22871C72.6093 4.93551 73.0467 4.91223 73.0483 5.22871C73.0544 6.05871 73.0328 6.64199 73.0823 7.37895C73.1935 9.06999 73.4934 10.7238 74.0374 12.3188C74.7715 14.4737 75.9908 16.4579 77.6336 18.0278C78.8623 19.2022 80.2856 20.1564 81.9038 20.8917C83.4864 21.6116 85.1678 22.1002 86.8801 22.4043C87.9867 22.5982 89.0763 22.7254 90.1504 22.7829C90.3605 22.7953 90.5707 22.7937 90.7778 22.7829C91.0592 22.7658 91.0912 23.1785 90.77 23.1986C90.4996 23.2173 90.2199 23.2374 89.9247 23.2591C89.0824 23.3181 88.2046 23.4267 87.2912 23.5834C84.0674 24.1418 80.9286 25.369 78.4542 27.5317C76.4219 29.3065 74.9831 31.6334 74.2027 34.2182C73.7205 35.8192 73.45 37.4668 73.3944 39.1607C73.3882 39.3686 73.3867 39.9054 73.3913 40.7726C73.3913 41.0643 72.9539 41.0876 72.9523 40.7711C72.9462 39.9426 72.9679 39.3594 72.9183 38.6209C72.8071 36.9298 72.5042 35.2791 71.9632 33.6842C71.2291 31.5278 70.0098 29.5419 68.367 27.9719Z" fill="black"/>
</svg>
